# xmcd
#
# Track frame offsets:
# 150
# 15462
# 41994
# 59228
#
# Disc length: 1143 seconds
#
# Revision: 1
# Processed by: cddbd v1.5.2PL0 Copyright (c) Steve Scherf et al.
# Submitted via: CedeCatalogueitor 2.6.0.6 http://personales.ya.com/cdcatalogueitor
#
DISCID=35047504
DTITLE=Maps - You Don't Know Her Name [CD Single)
DYEAR=1900
DGENRE=
TTITLE0=You Don't Know Her Name (single Version)
TTITLE1=You Don't Know Her Name (the Field Rmx)
TTITLE2=Fall Apart
TTITLE3=Elouise (Six Toes Rmx)
EXTD=
EXTT0=
EXTT1=
EXTT2=
EXTT3=
PLAYORDER=
